<svg width="24" height="24" viewBox="0 0 24 24" fill="none" xmlns="http://www.w3.org/2000/svg">
<path d="M12 20.8995L7.05022 15.9497C6.07127 14.9707 5.40459 13.7235 5.1345 12.3656C4.86441 11.0077 5.00304 9.60027 5.53285 8.32119C6.06267 7.04212 6.95988 5.94887 8.11102 5.17971C9.26216 4.41054 10.6155 4 12 4C13.3845 4 14.7378 4.41054 15.889 5.17971C17.0401 5.94887 17.9373 7.04212 18.4671 8.32119C18.997 9.60027 19.1356 11.0077 18.8655 12.3656C18.5954 13.7235 17.9287 14.9707 16.9498 15.9497L12 20.8995ZM15.85 14.8499C16.6114 14.0885 17.1298 13.1184 17.3399 12.0623C17.5499 11.0062 17.442 9.91151 17.03 8.9167C16.6179 7.92189 15.92 7.07162 15.0247 6.4734C14.1294 5.87518 13.0768 5.55589 12 5.55589C10.9232 5.55589 9.87061 5.87518 8.97529 6.4734C8.07997 7.07162 7.38214 7.92189 6.97004 8.9167C6.55795 9.91151 6.4501 11.0062 6.66013 12.0623C6.87016 13.1184 7.38864 14.0885 8.15 14.8499L12 18.6999L15.85 14.8499V14.8499ZM12 12.5555C11.5874 12.5555 11.1918 12.3916 10.9001 12.0999C10.6083 11.8082 10.4444 11.4125 10.4444 10.9999C10.4444 10.5874 10.6083 10.1917 10.9001 9.89999C11.1918 9.60827 11.5874 9.44438 12 9.44438C12.4126 9.44438 12.8082 9.60827 13.0999 9.89999C13.3917 10.1917 13.5556 10.5874 13.5556 10.9999C13.5556 11.4125 13.3917 11.8082 13.0999 12.0999C12.8082 12.3916 12.4126 12.5555 12 12.5555Z" fill="#0A8ED9"/>
</svg>
