<svg width="24" height="24" viewBox="0 0 24 24" fill="none" xmlns="http://www.w3.org/2000/svg">
<g clip-path="url(#clip0_19_34)">
<path d="M18 19.75H16.5V18.25C16.5 17.6533 16.2629 17.081 15.841 16.659C15.419 16.2371 14.8467 16 14.25 16H9.75C9.15326 16 8.58097 16.2371 8.15901 16.659C7.73705 17.081 7.5 17.6533 7.5 18.25V19.75H6V18.25C6 17.2554 6.39509 16.3016 7.09835 15.5983C7.80161 14.8951 8.75544 14.5 9.75 14.5H14.25C15.2446 14.5 16.1984 14.8951 16.9017 15.5983C17.6049 16.3016 18 17.2554 18 18.25V19.75ZM12 13C11.4091 13 10.8239 12.8836 10.2779 12.6575C9.73196 12.4313 9.23588 12.0998 8.81802 11.682C8.40016 11.2641 8.06869 10.768 7.84254 10.2221C7.6164 9.67611 7.5 9.09095 7.5 8.5C7.5 7.90905 7.6164 7.32389 7.84254 6.77792C8.06869 6.23196 8.40016 5.73588 8.81802 5.31802C9.23588 4.90016 9.73196 4.56869 10.2779 4.34254C10.8239 4.1164 11.4091 4 12 4C13.1935 4 14.3381 4.47411 15.182 5.31802C16.0259 6.16193 16.5 7.30653 16.5 8.5C16.5 9.69347 16.0259 10.8381 15.182 11.682C14.3381 12.5259 13.1935 13 12 13ZM12 11.5C12.7956 11.5 13.5587 11.1839 14.1213 10.6213C14.6839 10.0587 15 9.29565 15 8.5C15 7.70435 14.6839 6.94129 14.1213 6.37868C13.5587 5.81607 12.7956 5.5 12 5.5C11.2044 5.5 10.4413 5.81607 9.87868 6.37868C9.31607 6.94129 9 7.70435 9 8.5C9 9.29565 9.31607 10.0587 9.87868 10.6213C10.4413 11.1839 11.2044 11.5 12 11.5Z" fill="white"/>
</g>
<defs>
<clipPath id="clip0_19_34">
<rect width="24" height="24" fill="white"/>
</clipPath>
</defs>
</svg>
