<svg width="24" height="24" viewBox="0 0 24 24" fill="none" xmlns="http://www.w3.org/2000/svg">
<g clip-path="url(#clip0_19_2)">
<path d="M20 19.7624C20 19.9981 19.9064 20.2242 19.7397 20.3909C19.573 20.5576 19.3469 20.6513 19.1111 20.6513H4.88889C4.65314 20.6513 4.42705 20.5576 4.26035 20.3909C4.09365 20.2242 4 19.9981 4 19.7624V10.4202C3.99991 10.2847 4.03077 10.151 4.09024 10.0293C4.1497 9.90762 4.2362 9.80112 4.34311 9.71795L11.4542 4.18728C11.6103 4.0659 11.8023 4 12 4C12.1977 4 12.3897 4.0659 12.5458 4.18728L19.6569 9.71795C19.7638 9.80112 19.8503 9.90762 19.9098 10.0293C19.9692 10.151 20.0001 10.2847 20 10.4202V19.7624V19.7624ZM18.2222 18.8735V10.8539L12 6.01484L5.77778 10.8539V18.8735H18.2222ZM7.55556 15.3179H16.4444V17.0957H7.55556V15.3179Z" fill="white"/>
</g>
<defs>
<clipPath id="clip0_19_2">
<rect width="24" height="24" fill="white"/>
</clipPath>
</defs>
</svg>
