<svg width="24" height="24" viewBox="0 0 24 24" fill="none" xmlns="http://www.w3.org/2000/svg">
<path d="M16.4705 10.0212C16.4705 8.68891 15.9499 7.41123 15.0232 6.46918C14.0966 5.52714 12.8398 4.9979 11.5293 4.9979C10.2188 4.9979 8.96201 5.52714 8.03536 6.46918C7.10871 7.41123 6.58812 8.68891 6.58812 10.0212V16.7188H16.4705V10.0212ZM18.1175 17.2773L18.4469 17.7235C18.4928 17.7857 18.5208 17.8596 18.5276 17.9371C18.5345 18.0145 18.52 18.0923 18.4858 18.1619C18.4516 18.2314 18.3991 18.2899 18.334 18.3307C18.269 18.3716 18.194 18.3933 18.1175 18.3933H4.94106C4.86459 18.3933 4.78963 18.3716 4.72458 18.3307C4.65954 18.2899 4.60697 18.2314 4.57277 18.1619C4.53857 18.0923 4.52409 18.0145 4.53096 17.9371C4.53783 17.8596 4.56577 17.7857 4.61165 17.7235L4.94106 17.2773V10.0212C4.94106 8.24483 5.63518 6.54125 6.87071 5.28519C8.10625 4.02913 9.78199 3.32349 11.5293 3.32349C13.2766 3.32349 14.9523 4.02913 16.1879 5.28519C17.4234 6.54125 18.1175 8.24483 18.1175 10.0212V17.2773ZM9.47047 19.2305H13.5881C13.5881 19.7856 13.3712 20.3179 12.9851 20.7105C12.599 21.103 12.0753 21.3235 11.5293 21.3235C10.9833 21.3235 10.4596 21.103 10.0735 20.7105C9.68738 20.3179 9.47047 19.7856 9.47047 19.2305Z" fill="white"/>
<circle cx="16" cy="5" r="3" fill="#FA0E0E"/>
</svg>
