<svg width="24" height="24" viewBox="0 0 24 24" fill="none" xmlns="http://www.w3.org/2000/svg">
<g clip-path="url(#clip0_19_8)">
<path d="M6.75 4H17.25C17.4489 4 17.6397 4.07902 17.7803 4.21967C17.921 4.36032 18 4.55109 18 4.75V19.1073C18.0001 19.1743 17.9822 19.2402 17.9482 19.2979C17.9142 19.3557 17.8653 19.4033 17.8066 19.4358C17.7479 19.4683 17.6816 19.4844 17.6146 19.4826C17.5476 19.4807 17.4823 19.4609 17.4255 19.4252L12 16.0225L6.5745 19.4245C6.51778 19.4601 6.45254 19.4799 6.38558 19.4818C6.31861 19.4837 6.25236 19.4676 6.19372 19.4352C6.13508 19.4029 6.08618 19.3554 6.05211 19.2977C6.01804 19.24 6.00005 19.1742 6 19.1073V4.75C6 4.55109 6.07902 4.36032 6.21967 4.21967C6.36032 4.07902 6.55109 4 6.75 4ZM16.5 5.5H7.5V17.074L12 14.2533L16.5 17.074V5.5Z" fill="white"/>
</g>
<defs>
<clipPath id="clip0_19_8">
<rect width="24" height="24" fill="white"/>
</clipPath>
</defs>
</svg>
