<svg width="24" height="24" viewBox="0 0 24 24" fill="none" xmlns="http://www.w3.org/2000/svg">
<path d="M7.336 16.802C7.50128 16.3335 7.80779 15.9279 8.21328 15.641C8.61877 15.3541 9.10327 15.2 9.6 15.2C10.0967 15.2 10.5812 15.3541 10.9867 15.641C11.3922 15.9279 11.6987 16.3335 11.864 16.802H20V18.402H11.864C11.6987 18.8704 11.3922 19.276 10.9867 19.5629C10.5812 19.8498 10.0967 20.0039 9.6 20.0039C9.10327 20.0039 8.61877 19.8498 8.21328 19.5629C7.80779 19.276 7.50128 18.8704 7.336 18.402H4V16.802H7.336ZM12.136 11.202C12.3013 10.7335 12.6078 10.3279 13.0133 10.041C13.4188 9.75408 13.9033 9.6 14.4 9.6C14.8967 9.6 15.3812 9.75408 15.7867 10.041C16.1922 10.3279 16.4987 10.7335 16.664 11.202H20V12.802H16.664C16.4987 13.2704 16.1922 13.676 15.7867 13.9629C15.3812 14.2498 14.8967 14.4039 14.4 14.4039C13.9033 14.4039 13.4188 14.2498 13.0133 13.9629C12.6078 13.676 12.3013 13.2704 12.136 12.802H4V11.202H12.136ZM7.336 5.60196C7.50128 5.13353 7.80779 4.72791 8.21328 4.44099C8.61877 4.15408 9.10327 4 9.6 4C10.0967 4 10.5812 4.15408 10.9867 4.44099C11.3922 4.72791 11.6987 5.13353 11.864 5.60196H20V7.20196H11.864C11.6987 7.67039 11.3922 8.07601 10.9867 8.36293C10.5812 8.64984 10.0967 8.80392 9.6 8.80392C9.10327 8.80392 8.61877 8.64984 8.21328 8.36293C7.80779 8.07601 7.50128 7.67039 7.336 7.20196H4V5.60196H7.336ZM9.6 7.20196C9.81217 7.20196 10.0157 7.11767 10.1657 6.96765C10.3157 6.81762 10.4 6.61413 10.4 6.40196C10.4 6.18979 10.3157 5.9863 10.1657 5.83628C10.0157 5.68625 9.81217 5.60196 9.6 5.60196C9.38783 5.60196 9.18434 5.68625 9.03431 5.83628C8.88429 5.9863 8.8 6.18979 8.8 6.40196C8.8 6.61413 8.88429 6.81762 9.03431 6.96765C9.18434 7.11767 9.38783 7.20196 9.6 7.20196ZM14.4 12.802C14.6122 12.802 14.8157 12.7177 14.9657 12.5676C15.1157 12.4176 15.2 12.2141 15.2 12.002C15.2 11.7898 15.1157 11.5863 14.9657 11.4363C14.8157 11.2862 14.6122 11.202 14.4 11.202C14.1878 11.202 13.9843 11.2862 13.8343 11.4363C13.6843 11.5863 13.6 11.7898 13.6 12.002C13.6 12.2141 13.6843 12.4176 13.8343 12.5676C13.9843 12.7177 14.1878 12.802 14.4 12.802ZM9.6 18.402C9.81217 18.402 10.0157 18.3177 10.1657 18.1676C10.3157 18.0176 10.4 17.8141 10.4 17.602C10.4 17.3898 10.3157 17.1863 10.1657 17.0363C10.0157 16.8862 9.81217 16.802 9.6 16.802C9.38783 16.802 9.18434 16.8862 9.03431 17.0363C8.88429 17.1863 8.8 17.3898 8.8 17.602C8.8 17.8141 8.88429 18.0176 9.03431 18.1676C9.18434 18.3177 9.38783 18.402 9.6 18.402Z" fill="white"/>
</svg>
