<svg width="24" height="24" viewBox="0 0 24 24" fill="none" xmlns="http://www.w3.org/2000/svg">
<g clip-path="url(#clip0_19_22)">
<path d="M8.23281 19.0592L4.00001 20L4.94081 15.7672C4.32123 14.6083 3.99803 13.3141 4.00001 12C4.00001 7.5816 7.58161 4 12 4C16.4184 4 20 7.5816 20 12C20 16.4184 16.4184 20 12 20C10.6859 20.002 9.3917 19.6788 8.23281 19.0592V19.0592ZM8.46481 17.3688L8.98721 17.6488C9.91405 18.1441 10.9491 18.4022 12 18.4C13.2658 18.4 14.5032 18.0246 15.5557 17.3214C16.6081 16.6182 17.4284 15.6186 17.9128 14.4492C18.3972 13.2797 18.524 11.9929 18.277 10.7514C18.0301 9.50994 17.4205 8.36957 16.5255 7.47451C15.6304 6.57946 14.4901 5.96992 13.2486 5.72297C12.0071 5.47603 10.7203 5.60277 9.55083 6.08717C8.38139 6.57157 7.38184 7.39187 6.6786 8.44435C5.97536 9.49682 5.60001 10.7342 5.60001 12C5.60001 13.0672 5.86001 14.0944 6.35201 15.0128L6.63121 15.5352L6.10721 17.8928L8.46481 17.3688V17.3688Z" fill="#0A8ED9"/>
<circle cx="17" cy="7" r="3" fill="#FA0E0E"/>
</g>
<defs>
<clipPath id="clip0_19_22">
<rect width="24" height="24" fill="white"/>
</clipPath>
</defs>
</svg>
