<svg width="24" height="24" viewBox="0 0 24 24" fill="none" xmlns="http://www.w3.org/2000/svg">
<path d="M10.4995 8.93055C10.6195 8.93055 10.7395 8.8848 10.831 8.79324L11.081 8.54324C11.264 8.36018 11.264 8.0634 11.081 7.88034C10.898 7.69728 10.6011 7.69728 10.4181 7.88034L10.1681 8.13034C9.87193 8.42652 10.0857 8.93055 10.4995 8.93055Z" fill="#858585"/>
<path d="M12.4996 9.18055C12.6195 9.18055 12.7395 9.1348 12.831 9.04324L13.081 8.79324C13.2641 8.61018 13.2641 8.3134 13.081 8.13034C12.898 7.94728 12.6011 7.94728 12.4181 8.13034L12.1681 8.38034C11.8719 8.67652 12.0857 9.18055 12.4996 9.18055Z" fill="#858585"/>
<path d="M10.4995 10.9306C10.6195 10.9306 10.7395 10.8848 10.831 10.7932L11.081 10.5432C11.264 10.3602 11.264 10.0634 11.081 9.88034C10.898 9.69728 10.6011 9.69728 10.4181 9.88034L10.1681 10.1303C9.87193 10.4265 10.0857 10.9306 10.4995 10.9306Z" fill="#858585"/>
<path d="M4.46875 12.9306H19.5312C19.7901 12.9306 20 12.7207 20 12.4619C20 12.203 19.7901 11.9931 19.5312 11.9931H18.9688V6.13206C18.9688 4.95456 18.0161 4.00006 16.837 4.00006C16.3446 4.00006 15.8642 4.17222 15.4844 4.48378L15.19 4.72531C14.5313 4.33759 13.6675 4.42615 13.1025 4.99119L12.3954 5.69828C12.2123 5.88134 12.2123 6.17812 12.3954 6.36119L14.1632 8.12897C14.3462 8.31203 14.643 8.31206 14.8261 8.12897C15.5767 7.37834 15.5301 7.42187 15.5332 7.42187C16.078 6.87706 16.1799 6.05444 15.8388 5.40572L16.0791 5.20859C16.2907 5.03497 16.5581 4.93872 16.8318 4.93759C17.4723 4.93184 18.0312 5.45256 18.0312 6.13206V11.9932C17.551 11.9932 4.94447 11.9932 4.46875 11.9932C4.20987 11.9932 4 12.203 4 12.4619C4 12.7208 4.20987 12.9306 4.46875 12.9306Z" fill="#858585"/>
<path d="M5.2793 13.8682L5.47902 14.9666C5.77623 16.6013 6.98927 17.8709 8.5313 18.2859V18.9619C8.5313 19.2208 8.74117 19.4307 9.00005 19.4307C9.25892 19.4307 9.4688 19.2208 9.4688 18.9619V18.4274C9.61511 18.433 14.4018 18.4323 14.5313 18.4274V18.9619C14.5313 19.2208 14.7412 19.4307 15 19.4307C15.2589 19.4307 15.4688 19.2208 15.4688 18.9619V18.2859C17.0108 17.8709 18.2239 16.6013 18.5211 14.9666L18.7208 13.8682H5.2793V13.8682Z" fill="#858585"/>
</svg>
