<svg width="24" height="24" viewBox="0 0 24 24" fill="none" xmlns="http://www.w3.org/2000/svg">
<g clip-path="url(#clip0_14_260)">
<path d="M17.9993 14.9462V17.3034C17.9994 17.4721 17.9355 17.6347 17.8204 17.7581C17.7053 17.8816 17.5477 17.9569 17.3794 17.9687C17.0881 17.9887 16.8501 17.9993 16.6661 17.9993C10.7751 17.9993 6 13.2243 6 7.33326C6 7.14927 6.01 6.91128 6.03066 6.61997C6.04248 6.4516 6.11771 6.29399 6.24119 6.17893C6.36466 6.06387 6.52719 5.99992 6.69596 6H9.05316C9.13585 5.99992 9.21562 6.03057 9.27697 6.08601C9.33832 6.14145 9.37688 6.21771 9.38515 6.29998C9.40048 6.45331 9.41448 6.5753 9.42781 6.66796C9.56029 7.59253 9.83179 8.49175 10.2331 9.33515C10.2964 9.46847 10.2551 9.6278 10.1351 9.71313L8.69652 10.7411C9.5761 12.7906 11.2094 14.4239 13.2589 15.3035L14.2855 13.8676C14.3275 13.8089 14.3887 13.7668 14.4585 13.7487C14.5283 13.7305 14.6023 13.7374 14.6675 13.7682C15.5108 14.1688 16.4098 14.4396 17.334 14.5715C17.4267 14.5849 17.5487 14.5995 17.7007 14.6142C17.7828 14.6226 17.8589 14.6612 17.9142 14.7226C17.9695 14.7839 18.0001 14.8636 18 14.9462H17.9993Z" fill="white"/>
</g>
<defs>
<clipPath id="clip0_14_260">
<rect width="24" height="24" fill="white"/>
</clipPath>
</defs>
</svg>
