<svg width="16" height="16" viewBox="0 0 16 16" fill="none" xmlns="http://www.w3.org/2000/svg">
<path d="M8 14L4.46445 10.4853C3.76519 9.79011 3.28899 8.90444 3.09607 7.94025C2.90315 6.97606 3.00217 5.97664 3.38061 5.0684C3.75905 4.16015 4.39991 3.38386 5.22216 2.83769C6.0444 2.29152 7.0111 2 8 2C8.9889 2 9.9556 2.29152 10.7778 2.83769C11.6001 3.38386 12.241 4.16015 12.6194 5.0684C12.9978 5.97664 13.0969 6.97606 12.9039 7.94025C12.711 8.90444 12.2348 9.79011 11.5356 10.4853L8 14ZM10.75 9.70433C11.2938 9.16364 11.6642 8.47479 11.8142 7.72487C11.9642 6.97495 11.8872 6.19765 11.5928 5.49126C11.2985 4.78486 10.8 4.1811 10.1605 3.75632C9.52099 3.33153 8.76913 3.10481 8 3.10481C7.23087 3.10481 6.47901 3.33153 5.83949 3.75632C5.19998 4.1811 4.70153 4.78486 4.40717 5.49126C4.11282 6.19765 4.03579 6.97495 4.18581 7.72487C4.33583 8.47479 4.70617 9.16364 5.25 9.70433L8 12.4381L10.75 9.70433ZM8 8.07509C7.70532 8.07509 7.4227 7.95871 7.21433 7.75157C7.00595 7.54442 6.88889 7.26347 6.88889 6.97052C6.88889 6.67757 7.00595 6.39662 7.21433 6.18947C7.4227 5.98232 7.70532 5.86595 8 5.86595C8.29468 5.86595 8.5773 5.98232 8.78567 6.18947C8.99405 6.39662 9.11111 6.67757 9.11111 6.97052C9.11111 7.26347 8.99405 7.54442 8.78567 7.75157C8.5773 7.95871 8.29468 8.07509 8 8.07509Z" fill="white"/>
</svg>
