<svg width="26" height="24" viewBox="0 0 26 24" fill="none" xmlns="http://www.w3.org/2000/svg">
<path d="M17.5901 15.5128L21.0631 18.8855L19.9157 20L16.4435 16.6266C15.1516 17.6325 13.5446 18.1797 11.8888 18.1774C7.86031 18.1774 4.59082 15.0017 4.59082 11.0887C4.59082 7.17574 7.86031 4 11.8888 4C15.9173 4 19.1868 7.17574 19.1868 11.0887C19.1891 12.6971 18.6258 14.2579 17.5901 15.5128ZM15.9635 14.9284C16.9926 13.9005 17.5673 12.5225 17.565 11.0887C17.565 8.04214 15.0245 5.57527 11.8888 5.57527C8.75229 5.57527 6.21259 8.04214 6.21259 11.0887C6.21259 14.1345 8.75229 16.6021 11.8888 16.6021C13.365 16.6044 14.7836 16.0462 15.8419 15.0466L15.9635 14.9284Z" fill="#838383"/>
</svg>
