<svg width="24" height="24" viewBox="0 0 24 24" fill="none" xmlns="http://www.w3.org/2000/svg">
<g clip-path="url(#clip0_19_38)">
<path d="M12 20C7.5816 20 4 16.4184 4 12C4 7.5816 7.5816 4 12 4C16.4184 4 20 7.5816 20 12C20 16.4184 16.4184 20 12 20ZM12 18.4C13.6974 18.4 15.3253 17.7257 16.5255 16.5255C17.7257 15.3253 18.4 13.6974 18.4 12C18.4 10.3026 17.7257 8.67475 16.5255 7.47452C15.3253 6.27428 13.6974 5.6 12 5.6C10.3026 5.6 8.67475 6.27428 7.47452 7.47452C6.27428 8.67475 5.6 10.3026 5.6 12C5.6 13.6974 6.27428 15.3253 7.47452 16.5255C8.67475 17.7257 10.3026 18.4 12 18.4ZM11.2 14.4H12.8V16H11.2V14.4ZM12.8 13.084V13.6H11.2V12.4C11.2 12.1878 11.2843 11.9843 11.4343 11.8343C11.5843 11.6843 11.7878 11.6 12 11.6C12.2273 11.6 12.4498 11.5354 12.6419 11.4139C12.8339 11.2923 12.9874 11.1187 13.0846 10.9133C13.1818 10.7078 13.2187 10.479 13.1909 10.2535C13.1632 10.0279 13.072 9.81487 12.9279 9.63913C12.7838 9.46339 12.5927 9.33218 12.377 9.26078C12.1612 9.18937 11.9296 9.18069 11.7091 9.23576C11.4887 9.29083 11.2883 9.40738 11.1315 9.57185C10.9747 9.73632 10.8677 9.94195 10.8232 10.1648L9.2536 9.8504C9.35091 9.36407 9.57561 8.9123 9.90474 8.54127C10.2339 8.17024 10.6556 7.89327 11.1269 7.73866C11.5981 7.58405 12.102 7.55735 12.5869 7.66129C13.0719 7.76524 13.5206 7.99609 13.8871 8.33026C14.2535 8.66443 14.5247 9.08992 14.6729 9.56325C14.821 10.0366 14.8409 10.5408 14.7303 11.0242C14.6197 11.5077 14.3828 11.9532 14.0436 12.3151C13.7045 12.677 13.2753 12.9423 12.8 13.084Z" fill="white"/>
</g>
<defs>
<clipPath id="clip0_19_38">
<rect width="24" height="24" fill="white"/>
</clipPath>
</defs>
</svg>
