<svg width="24" height="24" viewBox="0 0 24 24" fill="none" xmlns="http://www.w3.org/2000/svg">
<g clip-path="url(#clip0_19_28)">
<path d="M4.81179 16.4522C4.4609 15.8454 4.18814 15.1967 4 14.5215C4.40947 14.3132 4.75335 13.9958 4.99359 13.6042C5.23384 13.2126 5.36108 12.7623 5.36126 12.3029C5.36143 11.8435 5.23452 11.393 4.99457 11.0013C4.75461 10.6095 4.41097 10.2918 4.00166 10.0832C4.37687 8.72651 5.09129 7.48763 6.07761 6.48332C6.46283 6.73376 6.90983 6.87274 7.36915 6.88488C7.82846 6.89701 8.28218 6.78183 8.68008 6.55207C9.07799 6.32231 9.40457 5.98695 9.62368 5.58308C9.84279 5.17921 9.94589 4.7226 9.92156 4.26377C11.2846 3.91152 12.7149 3.91209 14.0776 4.26543C14.0535 4.72425 14.1568 5.1808 14.3761 5.58455C14.5954 5.9883 14.9221 6.32351 15.32 6.55309C15.718 6.78267 16.1718 6.89767 16.6311 6.88535C17.0904 6.87304 17.5373 6.73389 17.9224 6.48332C18.403 6.97304 18.8296 7.53001 19.1882 8.15171C19.5476 8.77342 19.8166 9.42169 20 10.0824C19.5905 10.2907 19.2467 10.6081 19.0064 10.9997C18.7662 11.3913 18.6389 11.8416 18.6387 12.301C18.6386 12.7604 18.7655 13.2109 19.0054 13.6026C19.2454 13.9944 19.589 14.3121 19.9983 14.5207C19.6231 15.8774 18.9087 17.1163 17.9224 18.1206C17.5372 17.8701 17.0902 17.7312 16.6309 17.719C16.1715 17.7069 15.7178 17.8221 15.3199 18.0518C14.922 18.2816 14.5954 18.617 14.3763 19.0208C14.1572 19.4247 14.0541 19.8813 14.0784 20.3401C12.7154 20.6924 11.2851 20.6918 9.92239 20.3385C9.9465 19.8796 9.8432 19.4231 9.62392 19.0194C9.40464 18.6156 9.07794 18.2804 8.67995 18.0508C8.28197 17.8212 7.82823 17.7062 7.36894 17.7185C6.90965 17.7309 6.46272 17.87 6.07761 18.1206C5.58704 17.62 5.16173 17.0594 4.81179 16.4522ZM9.50986 16.6149C10.3944 17.125 11.0594 17.9438 11.3775 18.9141C11.7917 18.9531 12.2075 18.954 12.6217 18.9149C12.9399 17.9445 13.6053 17.1257 14.4901 16.6157C15.3743 16.1041 16.4163 15.9371 17.4161 16.1467C17.6568 15.8081 17.8643 15.447 18.0369 15.0693C17.3558 14.3085 16.9796 13.3231 16.9803 12.302C16.9803 11.2561 17.3704 10.2791 18.0369 9.53457C17.8631 9.15702 17.6547 8.79635 17.4144 8.45717C16.4153 8.6666 15.374 8.4999 14.4901 7.98902C13.6056 7.47885 12.9406 6.6601 12.6225 5.68979C12.2083 5.65078 11.7925 5.64995 11.3783 5.68896C11.0601 6.65941 10.3947 7.47818 9.50986 7.98819C8.62568 8.49976 7.58371 8.66677 6.58394 8.45717C6.34369 8.79607 6.13582 9.15679 5.96306 9.53457C6.64418 10.2954 7.02045 11.2808 7.01971 12.302C7.01971 13.3478 6.62959 14.3248 5.96306 15.0693C6.13693 15.4469 6.34533 15.8075 6.5856 16.1467C7.58474 15.9373 8.62603 16.104 9.50986 16.6149ZM12 14.7921C11.3396 14.7921 10.7062 14.5297 10.2392 14.0627C9.77221 13.5958 9.50986 12.9624 9.50986 12.302C9.50986 11.6415 9.77221 11.0081 10.2392 10.5412C10.7062 10.0742 11.3396 9.81181 12 9.81181C12.6604 9.81181 13.2938 10.0742 13.7608 10.5412C14.2278 11.0081 14.4901 11.6415 14.4901 12.302C14.4901 12.9624 14.2278 13.5958 13.7608 14.0627C13.2938 14.5297 12.6604 14.7921 12 14.7921ZM12 13.132C12.2201 13.132 12.4313 13.0445 12.5869 12.8889C12.7426 12.7332 12.83 12.5221 12.83 12.302C12.83 12.0818 12.7426 11.8707 12.5869 11.715C12.4313 11.5594 12.2201 11.4719 12 11.4719C11.7799 11.4719 11.5687 11.5594 11.4131 11.715C11.2574 11.8707 11.17 12.0818 11.17 12.302C11.17 12.5221 11.2574 12.7332 11.4131 12.8889C11.5687 13.0445 11.7799 13.132 12 13.132Z" fill="#0A8ED9"/>
</g>
<defs>
<clipPath id="clip0_19_28">
<rect width="24" height="24" fill="white"/>
</clipPath>
</defs>
</svg>
