<svg width="24" height="24" viewBox="0 0 24 24" fill="none" xmlns="http://www.w3.org/2000/svg">
<g clip-path="url(#clip0_19_43)">
<path d="M7.412 5.4456L8.3296 6.7568C7.21455 7.53741 6.37741 8.6532 5.93979 9.94208C5.50218 11.231 5.48688 12.6258 5.89612 13.9239C6.30537 15.2221 7.11783 16.356 8.2155 17.1609C9.31317 17.9658 10.6389 18.3997 12 18.3997C13.3611 18.3997 14.6868 17.9658 15.7845 17.1609C16.8822 16.356 17.6946 15.2221 18.1039 13.9239C18.5131 12.6258 18.4978 11.231 18.0602 9.94208C17.6226 8.6532 16.7855 7.53741 15.6704 6.7568L16.588 5.4456C17.6424 6.18274 18.5031 7.16356 19.0972 8.30469C19.6912 9.44582 20.0009 10.7135 20 12C20 16.4184 16.4184 20 12 20C7.5816 20 4 16.4184 4 12C3.99908 10.7135 4.30879 9.44582 4.90283 8.30469C5.49686 7.16356 6.35764 6.18274 7.412 5.4456V5.4456ZM11.2 12V4H12.8V12H11.2Z" fill="#0A8ED9"/>
</g>
<defs>
<clipPath id="clip0_19_43">
<rect width="24" height="24" fill="white"/>
</clipPath>
</defs>
</svg>
