<svg width="24" height="24" viewBox="0 0 24 24" fill="none" xmlns="http://www.w3.org/2000/svg">
<g clip-path="url(#clip0_25_2873)">
<path d="M20 11.6V18.8H18.4V16.4H5.6V18.8H4V6H5.6V14H12V8.4H16.8C17.6487 8.4 18.4626 8.73714 19.0627 9.33726C19.6629 9.93737 20 10.7513 20 11.6ZM8.8 13.2C8.16348 13.2 7.55303 12.9471 7.10294 12.4971C6.65286 12.047 6.4 11.4365 6.4 10.8C6.4 10.1635 6.65286 9.55303 7.10294 9.10294C7.55303 8.65286 8.16348 8.4 8.8 8.4C9.43652 8.4 10.047 8.65286 10.4971 9.10294C10.9471 9.55303 11.2 10.1635 11.2 10.8C11.2 11.4365 10.9471 12.047 10.4971 12.4971C10.047 12.9471 9.43652 13.2 8.8 13.2Z" fill="#858585"/>
</g>
<defs>
<clipPath id="clip0_25_2873">
<rect width="24" height="24" fill="white"/>
</clipPath>
</defs>
</svg>
